# xmcd
#
# Track frame offsets: 
#        150
#        14528
#        25342
#        52025
#        68497
#        82505
#        97910
#        109344
#        126804
#        147415
#        159330
#        170268
#        189898
#        209171
#        225742
#        246635
#        261223
#        277645
#        298995
#        312000
#        329253
#
# Disc length: 4562 seconds
#
# Revision: 0
# Processed by: cddbd v1.5.2PL0 Copyright (c) Steve Scherf et al.
# Submitted via: ExactAudioCopy v1.1
#
DISCID=2711d015
DTITLE=Весёлые ребята - The very best
DYEAR=1900
DGENRE=Folk
TTITLE0=Автомобили
TTITLE1=Алёшкина любовь
TTITLE2=Белладонна
TTITLE3=Бродячие артисты
TTITLE4=В последний раз
TTITLE5=Вечная весна
TTITLE6=Если любишь ты
TTITLE7=Как прекрасен этот мир
TTITLE8=Когда молчим вдвоём
TTITLE9=Легко влюбиться
TTITLE10=Люди встречаются
TTITLE11=На Канарских островах
TTITLE12=Не волнуйтесь, тётя
TTITLE13=Ни минуты покоя
TTITLE14=Никогда не поверю
TTITLE15=Отчего
TTITLE16=Розита
TTITLE17=Розовые розы
TTITLE18=Уходило лето
TTITLE19=Что ты хочешь мне сказать
TTITLE20=А мне-то зачем
EXTD=
EXTT0=
EXTT1=
EXTT2=
EXTT3=
EXTT4=
EXTT5=
EXTT6=
EXTT7=
EXTT8=
EXTT9=
EXTT10=
EXTT11=
EXTT12=
EXTT13=
EXTT14=
EXTT15=
EXTT16=
EXTT17=
EXTT18=
EXTT19=
EXTT20=
PLAYORDER=
